<svg xmlns="http://www.w3.org/2000/svg" xmlns:xlink="http://www.w3.org/1999/xlink" width="3840" height="2160" viewBox="0 0 3840 2160" role="img" aria-labelledby="title desc">
  <title id="title">SiteMorph end-to-end climate-to-design architecture</title>
  <desc id="desc">Autodesk Forma site geometry flows through the embedded SiteMorph client, cache-first server orchestration, FortyGuard historical analysis, deterministic Climate DNA and design decisions, native Forma validation, reporting, and the supported manual Forma-to-Revit handoff. Functional and non-functional requirements are summarized below the flow.</desc>
  <defs>
    <linearGradient id="veil" x1="0" y1="0" x2="1" y2="1">
      <stop offset="0" stop-color="#061525" stop-opacity="0.80"/>
      <stop offset="0.52" stop-color="#071a2c" stop-opacity="0.90"/>
      <stop offset="1" stop-color="#061525" stop-opacity="0.82"/>
    </linearGradient>
    <linearGradient id="accent" x1="0" y1="0" x2="1" y2="0">
      <stop offset="0" stop-color="#35a7ff"/>
      <stop offset="0.5" stop-color="#19b7b0"/>
      <stop offset="1" stop-color="#d946ef"/>
    </linearGradient>
    <linearGradient id="cardTop" x1="0" y1="0" x2="1" y2="1">
      <stop offset="0" stop-color="#10334f" stop-opacity="0.96"/>
      <stop offset="1" stop-color="#0a2237" stop-opacity="0.96"/>
    </linearGradient>
    <pattern id="grid" width="80" height="80" patternUnits="userSpaceOnUse">
      <path d="M80 0H0V80" fill="none" stroke="#35a7ff" stroke-opacity="0.055" stroke-width="2"/>
    </pattern>
    <filter id="shadow" x="-20%" y="-20%" width="140%" height="160%">
      <feDropShadow dx="0" dy="16" stdDeviation="22" flood-color="#000814" flood-opacity="0.52"/>
    </filter>
    <marker id="arrowBlue" markerWidth="18" markerHeight="18" refX="15" refY="9" orient="auto" markerUnits="strokeWidth">
      <path d="M0 0L18 9L0 18Z" fill="#35a7ff"/>
    </marker>
    <marker id="arrowTeal" markerWidth="18" markerHeight="18" refX="15" refY="9" orient="auto" markerUnits="strokeWidth">
      <path d="M0 0L18 9L0 18Z" fill="#19b7b0"/>
    </marker>
    <marker id="arrowMagenta" markerWidth="18" markerHeight="18" refX="15" refY="9" orient="auto" markerUnits="strokeWidth">
      <path d="M0 0L18 9L0 18Z" fill="#d946ef"/>
    </marker>
    <style>
      text { font-family: "Segoe UI", "Inter", Arial, sans-serif; }
      .eyebrow { fill:#7fdcff; font-size:26px; font-weight:700; letter-spacing:4px; }
      .title { fill:#ffffff; font-size:76px; font-weight:760; letter-spacing:-1.5px; }
      .subtitle { fill:#a9c4d8; font-size:31px; font-weight:400; }
      .badge { fill:#d7f8ff; font-size:22px; font-weight:700; letter-spacing:1.4px; }
      .legend { fill:#c8d9e6; font-size:23px; font-weight:600; }
      .step { fill:#8ddfff; font-size:22px; font-weight:800; letter-spacing:3.2px; }
      .card-title { fill:#ffffff; font-size:40px; font-weight:750; letter-spacing:-0.4px; }
      .card-subtitle { fill:#8ccde9; font-size:25px; font-weight:600; }
      .bullet { fill:#dbeaf4; font-size:27px; font-weight:430; }
      .bullet-strong { fill:#ffffff; font-size:27px; font-weight:700; }
      .mono { fill:#b8f5f0; font-family:"Cascadia Mono",Consolas,monospace; font-size:22px; font-weight:600; }
      .chip { fill:#e4fbff; font-size:20px; font-weight:700; letter-spacing:.7px; }
      .route { fill:#b8d4e6; font-family:"Cascadia Mono",Consolas,monospace; font-size:20px; font-weight:600; }
      .route-label { fill:#dffaff; font-size:22px; font-weight:700; }
      .section-title { fill:#ffffff; font-size:34px; font-weight:760; }
      .req { fill:#dcebf4; font-size:26px; font-weight:440; }
      .req-id { fill:#62d9d0; font-size:24px; font-weight:800; letter-spacing:1px; }
      .foot { fill:#9cb6c9; font-size:21px; font-weight:500; }
    </style>
  </defs>

  <rect width="3840" height="2160" fill="#061525"/>
  <image xlink:href="sitemorph-architecture-foundation.png" width="3840" height="2160" preserveAspectRatio="xMidYMid slice" opacity="0.82"/>
  <rect width="3840" height="2160" fill="url(#veil)"/>
  <rect width="3840" height="2160" fill="url(#grid)"/>
  <rect x="0" y="0" width="3840" height="12" fill="url(#accent)"/>

  <!-- Header -->
  <g transform="translate(108 72)">
    <rect x="0" y="8" width="88" height="88" rx="22" fill="#0d91cf"/>
    <rect x="17" y="25" width="26" height="26" rx="7" fill="#77e6dd"/>
    <rect x="48" y="25" width="23" height="26" rx="6" fill="#071d31"/>
    <rect x="17" y="56" width="26" height="23" rx="6" fill="#071d31"/>
    <rect x="48" y="56" width="23" height="23" rx="6" fill="#77e6dd"/>
    <text x="118" y="25" class="eyebrow">SYSTEM ARCHITECTURE · 2026</text>
    <text x="118" y="92" class="title">SiteMorph climate-to-design platform</text>
    <text x="118" y="143" class="subtitle">FortyGuard adds historical thermal context to Forma · deterministic decisions · native geometry · auditable delivery</text>
  </g>

  <g transform="translate(2835 78)">
    <g transform="translate(0 0)"><rect width="250" height="50" rx="25" fill="#0c3550" stroke="#35a7ff" stroke-opacity=".65"/><text x="125" y="33" text-anchor="middle" class="badge">FORMA-NATIVE</text></g>
    <g transform="translate(265 0)"><rect width="270" height="50" rx="25" fill="#0b3b45" stroke="#19b7b0" stroke-opacity=".75"/><text x="135" y="33" text-anchor="middle" class="badge">FORTYGUARD-FIRST</text></g>
    <g transform="translate(550 0)"><rect width="210" height="50" rx="25" fill="#263049" stroke="#d946ef" stroke-opacity=".65"/><text x="105" y="33" text-anchor="middle" class="badge">CACHE-FIRST</text></g>
    <g transform="translate(775 0)"><rect width="235" height="50" rx="25" fill="#152d3f" stroke="#8ccde9" stroke-opacity=".55"/><text x="117" y="33" text-anchor="middle" class="badge">NO RUNTIME LLM</text></g>
    <g transform="translate(16 78)">
      <line x1="0" y1="0" x2="54" y2="0" stroke="#35a7ff" stroke-width="5" marker-end="url(#arrowBlue)"/><text x="74" y="8" class="legend">implemented</text>
      <line x1="245" y1="0" x2="299" y2="0" stroke="#d946ef" stroke-width="5" stroke-dasharray="12 10" marker-end="url(#arrowMagenta)"/><text x="319" y="8" class="legend">conditional / manual</text>
    </g>
  </g>

  <!-- Primary architecture cards -->
  <g filter="url(#shadow)">
    <rect x="100" y="300" width="780" height="660" rx="34" fill="url(#cardTop)" stroke="#2b7098" stroke-width="3"/>
    <rect x="980" y="300" width="780" height="660" rx="34" fill="url(#cardTop)" stroke="#2b7098" stroke-width="3"/>
    <rect x="1860" y="300" width="900" height="660" rx="34" fill="url(#cardTop)" stroke="#27a9a1" stroke-width="3"/>
    <rect x="2860" y="300" width="880" height="660" rx="34" fill="url(#cardTop)" stroke="#27a9a1" stroke-width="3"/>
  </g>

  <!-- Card 1 -->
  <g transform="translate(140 344)">
    <circle cx="34" cy="24" r="28" fill="#123e5e" stroke="#35a7ff" stroke-width="3"/><text x="34" y="33" text-anchor="middle" class="chip">1</text>
    <text x="82" y="32" class="step">AUTODESK FORMA HOST</text>
    <text x="0" y="98" class="card-title">Site context + native geometry</text>
    <text x="0" y="141" class="card-subtitle">Authoritative AEC environment</text>
    <text x="0" y="203" class="bullet-strong">• Real Site Limit selection</text>
    <text x="28" y="242" class="bullet">element path · footprint · area · proposal</text>
    <text x="0" y="293" class="bullet-strong">• Project coordinates and terrain</text>
    <text x="28" y="332" class="bullet">CRS/refPoint · elevations · existing buildings</text>
    <text x="0" y="383" class="bullet-strong">• Native proposal + analysis SDK</text>
    <text x="28" y="422" class="bullet">floor stacks · Sun · Rapid Wind · camera</text>
    <rect x="0" y="468" width="700" height="108" rx="20" fill="#071b2d" stroke="#2375a5" stroke-opacity=".8"/>
    <text x="24" y="505" class="mono">selection · project · geometry · terrain</text>
    <text x="24" y="544" class="mono">proposal · analysis · predictiveAnalysis</text>
  </g>

  <!-- Card 2 -->
  <g transform="translate(1020 344)">
    <circle cx="34" cy="24" r="28" fill="#123e5e" stroke="#35a7ff" stroke-width="3"/><text x="34" y="33" text-anchor="middle" class="chip">2</text>
    <text x="82" y="32" class="step">EMBEDDED SITEMORPH</text>
    <text x="0" y="98" class="card-title">Extension UI + state machine</text>
    <text x="0" y="141" class="card-subtitle">React 19 · TypeScript · Zustand</text>
    <text x="0" y="203" class="bullet-strong">• Site → Climate DNA → Design → Trace</text>
    <text x="0" y="254" class="bullet-strong">• Closed WGS84 GeoJSON AOI</text>
    <text x="0" y="305" class="bullet-strong">• Cache-first restore and resumable state</text>
    <text x="0" y="356" class="bullet-strong">• Deterministic advisor + generators</text>
    <text x="0" y="407" class="bullet-strong">• AOI-clipped groundTexture + colorbar</text>
    <rect x="0" y="455" width="700" height="132" rx="20" fill="#071b2d" stroke="#2375a5" stroke-opacity=".8"/>
    <text x="24" y="493" class="mono">POST /api/site/analyze</text>
    <text x="24" y="530" class="route">geometry · 35°C · timezone · cacheOnly</text>
    <text x="24" y="567" class="mono">GET /api/fortyguard/usage  (local)</text>
  </g>

  <!-- Card 3 -->
  <g transform="translate(1900 344)">
    <circle cx="34" cy="24" r="28" fill="#0c4548" stroke="#19b7b0" stroke-width="3"/><text x="34" y="33" text-anchor="middle" class="chip">3</text>
    <text x="82" y="32" class="step">SECURE ORCHESTRATOR</text>
    <text x="0" y="98" class="card-title">Cache, activity and credit control</text>
    <text x="0" y="141" class="card-subtitle">Local Vite middleware · Worker / Vercel Function adapters</text>
    <text x="0" y="202" class="bullet-strong">• Canonical identity</text>
    <text x="28" y="241" class="bullet">AOI + dates + threshold + granularity</text>
    <text x="28" y="278" class="bullet">timezone + full-evidence mode + schema</text>
    <text x="0" y="329" class="bullet-strong">• Memory → aggregate → activity cache</text>
    <text x="0" y="380" class="bullet-strong">• Persist IDs immediately; resume polling</text>
    <text x="0" y="431" class="bullet-strong">• In-flight dedupe · lock · quota reserve</text>
    <rect x="0" y="466" width="820" height="121" rx="20" fill="#07252c" stroke="#19b7b0" stroke-opacity=".8"/>
    <text x="24" y="503" class="mono">CACHE HIT → 0 new activities</text>
    <text x="24" y="540" class="route">local FS · R2 or private Vercel Blob + ETag CAS</text>
    <text x="24" y="575" class="route">first uncached max 15 · same-AOI rerun = 0</text>
  </g>

  <!-- Card 4 -->
  <g transform="translate(2900 344)">
    <circle cx="34" cy="24" r="28" fill="#0c4548" stroke="#19b7b0" stroke-width="3"/><text x="34" y="33" text-anchor="middle" class="chip">4</text>
    <text x="82" y="32" class="step">FORTYGUARD API</text>
    <text x="0" y="98" class="card-title">Historical thermal + visual context</text>
    <text x="0" y="141" class="card-subtitle">Coarse evidence · 60 m default</text>
    <text x="0" y="199" class="bullet-strong">Core · 12 activities</text>
    <text x="0" y="237" class="mono">POST /v1/heatmap</text>
    <text x="28" y="274" class="bullet">3 July dates × 4 analytics</text>
    <text x="28" y="311" class="route">tcm · persistence · exceedance · time_of_measure</text>
    <text x="0" y="362" class="bullet-strong">Required first-run context · +3</text>
    <text x="0" y="400" class="mono">POST /v1/env_params · /v1/satellite · /v1/streetview</text>
    <text x="0" y="451" class="bullet-strong">Persisted status and balance</text>
    <text x="0" y="489" class="mono">GET /v1/status/:activityId</text>
    <text x="0" y="526" class="mono">POST /v1/system/fetch-api-key-usage</text>
    <rect x="0" y="551" width="800" height="50" rx="18" fill="#2a1739" stroke="#d946ef" stroke-opacity=".7"/>
    <text x="22" y="584" class="chip">Ordered key fallback only on definitive invalid / revoked / exhausted</text>
  </g>

  <!-- Upper connectors -->
  <line x1="880" y1="625" x2="962" y2="625" stroke="#35a7ff" stroke-width="7" marker-end="url(#arrowBlue)"/>
  <text x="921" y="593" text-anchor="middle" class="route-label">SDK</text>
  <line x1="1760" y1="625" x2="1842" y2="625" stroke="#35a7ff" stroke-width="7" marker-end="url(#arrowBlue)"/>
  <text x="1801" y="593" text-anchor="middle" class="route-label">JSON</text>
  <line x1="2760" y1="582" x2="2842" y2="582" stroke="#19b7b0" stroke-width="7" marker-end="url(#arrowTeal)"/>
  <path d="M2842 690H2760" fill="none" stroke="#19b7b0" stroke-width="6" marker-end="url(#arrowTeal)"/>
  <text x="2800" y="544" text-anchor="middle" class="route-label">POST</text>
  <text x="2800" y="732" text-anchor="middle" class="route-label">status</text>

  <!-- Measured loop rail -->
  <path d="M2380 1017H520Q420 1017 420 930" fill="none" stroke="#35a7ff" stroke-width="5" stroke-dasharray="15 11" marker-end="url(#arrowBlue)" opacity=".9"/>
  <rect x="870" y="984" width="1180" height="62" rx="31" fill="#071b2d" stroke="#35a7ff" stroke-opacity=".65"/>
  <text x="1460" y="1024" text-anchor="middle" class="route-label">MEASURED FORMA LOOP · terrain-aligned proposal + native analysis evidence</text>

  <!-- Decision pipeline cards -->
  <g filter="url(#shadow)">
    <rect x="100" y="1080" width="860" height="460" rx="30" fill="#0a2438" fill-opacity=".96" stroke="#19b7b0" stroke-width="3"/>
    <rect x="1040" y="1080" width="860" height="460" rx="30" fill="#0a2438" fill-opacity=".96" stroke="#19b7b0" stroke-width="3"/>
    <rect x="1980" y="1080" width="860" height="460" rx="30" fill="#0a2438" fill-opacity=".96" stroke="#35a7ff" stroke-width="3"/>
    <rect x="2920" y="1080" width="820" height="460" rx="30" fill="#0a2438" fill-opacity=".96" stroke="#d946ef" stroke-width="3"/>
  </g>

  <g transform="translate(138 1115)">
    <text x="0" y="25" class="step">5 · NORMALIZE</text>
    <text x="0" y="77" class="card-title">Climate DNA + provenance</text>
    <text x="0" y="126" class="bullet-strong">• Polygon / MultiPolygon normalization</text>
    <text x="0" y="171" class="bullet-strong">• Terminal NO_THERMAL_COVERAGE</text>
    <text x="0" y="216" class="bullet">• Temperature · persistence · exceedance</text>
    <text x="0" y="255" class="bullet">  peak hour (evidence only) · activity IDs</text>
    <text x="0" y="300" class="bullet-strong">• Tile suitability = 40% T · 35% P · 25% E</text>
    <text x="0" y="345" class="bullet">• Uniform parcel → site-wide Moderate; no compass claim</text>
    <rect x="0" y="368" width="784" height="48" rx="17" fill="#073037"/><text x="20" y="400" class="chip">Fine variation may come only from readable Forma grids</text>
  </g>

  <g transform="translate(1078 1115)">
    <text x="0" y="25" class="step">6 · DECIDE</text>
    <text x="0" y="77" class="card-title">Deterministic design strategies</text>
    <text x="0" y="126" class="bullet-strong">• Site Fit Advisor · 8 use families</text>
    <text x="0" y="171" class="bullet">  assumptions + missing-evidence warnings</text>
    <text x="0" y="216" class="bullet-strong">• Single building · typology-aware brief</text>
    <text x="0" y="261" class="bullet-strong">• Subdivision · 3 local strategies</text>
    <text x="0" y="306" class="bullet">  FG burden × mitigation → 50% of final score</text>
    <text x="0" y="351" class="bullet-strong">• Only the selected option is materialized</text>
    <rect x="0" y="368" width="784" height="48" rx="17" fill="#073037"/><text x="20" y="400" class="chip">No paid option generation · no runtime GPT / LLM</text>
  </g>

  <g transform="translate(2018 1115)">
    <text x="0" y="25" class="step">7 · BUILD + MEASURE</text>
    <text x="0" y="77" class="card-title">Forma-native validation loop</text>
    <text x="0" y="126" class="bullet-strong">• Sample terrain; validate conflicts + placement</text>
    <text x="0" y="171" class="bullet-strong">• Native floor stacks + persistent concept context</text>
    <text x="0" y="216" class="bullet">  roads · paths · greens · upright GLB trees</text>
    <text x="0" y="261" class="bullet-strong">• Site-Limit Sun · optional Rapid Wind</text>
    <text x="0" y="306" class="bullet-strong">• Test at most one explainable revision</text>
    <text x="0" y="351" class="bullet">  retain measured improvement; otherwise roll back</text>
    <rect x="0" y="368" width="784" height="48" rx="17" fill="#10253b"/><text x="20" y="400" class="chip">Unreadable grid → native-result-only / partial, never fabricated</text>
  </g>

  <g transform="translate(2958 1115)">
    <text x="0" y="25" class="step">8 · DELIVER</text>
    <text x="0" y="77" class="card-title">Trace, report + handoff</text>
    <text x="0" y="126" class="bullet-strong">• Genuine DOCX with inline evidence</text>
    <text x="0" y="171" class="bullet">  formulas · IDs · decisions · limitations</text>
    <text x="0" y="216" class="bullet-strong">• JSON / CSV evidence · generic OBJ reference</text>
    <text x="0" y="261" class="bullet-strong">• Persisted native Forma proposal</text>
    <text x="0" y="306" class="mono">Proposals → Revit → Send to Revit add-in</text>
    <text x="0" y="351" class="bullet">• Manual host action; no direct SiteMorph Revit API</text>
    <rect x="0" y="368" width="744" height="48" rx="17" fill="#2a1739"/><text x="20" y="400" class="chip">Concept roads / trees / lots are not native Revit BIM</text>
  </g>

  <line x1="960" y1="1310" x2="1022" y2="1310" stroke="#19b7b0" stroke-width="7" marker-end="url(#arrowTeal)"/>
  <line x1="1900" y1="1310" x2="1962" y2="1310" stroke="#35a7ff" stroke-width="7" marker-end="url(#arrowBlue)"/>
  <line x1="2840" y1="1310" x2="2902" y2="1310" stroke="#d946ef" stroke-width="7" stroke-dasharray="12 9" marker-end="url(#arrowMagenta)"/>

  <!-- Requirement bands -->
  <g filter="url(#shadow)">
    <rect x="100" y="1610" width="1800" height="460" rx="30" fill="#091f31" fill-opacity=".97" stroke="#35a7ff" stroke-opacity=".7" stroke-width="3"/>
    <rect x="1940" y="1610" width="1800" height="460" rx="30" fill="#091f31" fill-opacity=".97" stroke="#19b7b0" stroke-opacity=".75" stroke-width="3"/>
  </g>

  <g transform="translate(142 1650)">
    <text x="0" y="0" class="step">FUNCTIONAL REQUIREMENTS</text>
    <text x="0" y="50" class="section-title">What the platform must do</text>
    <g transform="translate(0 97)">
      <text x="0" y="0" class="req-id">FR-01</text><text x="100" y="0" class="req">Select and validate a real Forma Site Limit AOI.</text>
      <text x="0" y="50" class="req-id">FR-02</text><text x="100" y="50" class="req">Restore aggregate/activity cache before any paid submission.</text>
      <text x="0" y="100" class="req-id">FR-03</text><text x="100" y="100" class="req">Build Climate DNA with required first-run satellite context.</text>
      <text x="0" y="150" class="req-id">FR-04</text><text x="100" y="150" class="req">Render the complete AOI without invented spatial resolution.</text>
      <text x="0" y="200" class="req-id">FR-05</text><text x="100" y="200" class="req">Produce deterministic briefs and visible planning assumptions.</text>
      <text x="0" y="250" class="req-id">FR-06</text><text x="100" y="250" class="req">Create terrain-aligned native building / selected subdivision.</text>
      <text x="900" y="0" class="req-id">FR-07</text><text x="1000" y="0" class="req">Validate with native Sun and optional Rapid Wind.</text>
      <text x="900" y="50" class="req-id">FR-08</text><text x="1000" y="50" class="req">Test no more than one explainable measured revision.</text>
      <text x="900" y="100" class="req-id">FR-09</text><text x="1000" y="100" class="req">Persist, verify and transactionally roll back geometry.</text>
      <text x="900" y="150" class="req-id">FR-10</text><text x="1000" y="150" class="req">Expose trace, source labels, IDs and decision formulas.</text>
      <text x="900" y="200" class="req-id">FR-11</text><text x="1000" y="200" class="req">Export genuine DOCX plus optional evidence sidecars.</text>
      <text x="900" y="250" class="req-id">FR-12</text><text x="1000" y="250" class="req">Preflight and guide the supported Forma → Revit route.</text>
    </g>
  </g>

  <g transform="translate(1982 1650)">
    <text x="0" y="0" class="step">NON-FUNCTIONAL REQUIREMENTS</text>
    <text x="0" y="50" class="section-title">How the platform must behave</text>
    <g transform="translate(0 97)">
      <text x="0" y="0" class="req-id">NFR-01</text><text x="130" y="0" class="req">Deterministic and auditable; no runtime LLM.</text>
      <text x="0" y="50" class="req-id">NFR-02</text><text x="130" y="50" class="req">Server-only keys, same-origin validation, strict failover.</text>
      <text x="0" y="100" class="req-id">NFR-03</text><text x="130" y="100" class="req">First uncached max 15; same-AOI reruns create zero.</text>
      <text x="0" y="150" class="req-id">NFR-04</text><text x="130" y="150" class="req">Durable IDs, cache recovery, in-flight request dedupe.</text>
      <text x="0" y="200" class="req-id">NFR-05</text><text x="130" y="200" class="req">Fail closed when required satellite imagery is missing.</text>
      <text x="0" y="250" class="req-id">NFR-06</text><text x="130" y="250" class="req">Bounded polling, retries, concurrency and geometry size.</text>
      <text x="900" y="0" class="req-id">NFR-07</text><text x="1030" y="0" class="req">Terrain-correct placement, verification and rollback.</text>
      <text x="900" y="50" class="req-id">NFR-08</text><text x="1030" y="50" class="req">Honest partial/unavailable/no-coverage degradation.</text>
      <text x="900" y="100" class="req-id">NFR-09</text><text x="1030" y="100" class="req">Preserve FortyGuard resolution and source attribution.</text>
      <text x="900" y="150" class="req-id">NFR-10</text><text x="1030" y="150" class="req">Host-native interoperability; no independent 3D viewer.</text>
      <text x="900" y="200" class="req-id">NFR-11</text><text x="1030" y="200" class="req">Portable local/worker adapters over shared logic.</text>
      <text x="900" y="250" class="req-id">NFR-12</text><text x="1030" y="250" class="req">Type, build, cache, geometry and hosted test gates.</text>
    </g>
  </g>

  <text x="100" y="2125" class="foot">Boundary: preliminary climate-to-design intelligence — not zoning, entitlement, legal, financial, market, fire, civil, structural, planting or permit compliance.</text>
  <text x="3740" y="2125" text-anchor="end" class="foot">Solid = implemented · dashed = conditional/manual · generated 4K source</text>
</svg>
